<svg width="106" height="105" viewBox="0 0 106 105" fill="none" xmlns="http://www.w3.org/2000/svg">
<path d="M46.9525 12.4914C49.6333 7.82621 56.3638 7.82621 59.0446 12.4914L61.7309 17.1662C63.7528 20.6845 67.8914 22.3988 71.8089 21.3406L77.014 19.9346C82.2084 18.5314 86.9676 23.2906 85.5644 28.485L84.1584 33.6901C83.1002 37.6076 84.8145 41.7463 88.3329 43.7681L93.0076 46.4544C97.6728 49.1353 97.6728 55.8657 93.0076 58.5466L88.3329 61.2329C84.8145 63.2547 83.1002 67.3934 84.1584 71.3109L85.5645 76.516C86.9676 81.7104 82.2084 86.4696 77.014 85.0664L71.8089 83.6604C67.8914 82.6022 63.7527 84.3165 61.7309 87.8348L59.0446 92.5096C56.3638 97.1748 49.6333 97.1748 46.9525 92.5096L44.2661 87.8348C42.2443 84.3165 38.1056 82.6021 34.1881 83.6604L28.983 85.0664C23.7886 86.4696 19.0295 81.7104 20.4326 76.516L21.8386 71.3109C22.8969 67.3934 21.1826 63.2547 17.6642 61.2329L12.9894 58.5465C8.32426 55.8657 8.32426 49.1353 12.9894 46.4544L17.6642 43.7681C21.1826 41.7463 22.8969 37.6076 21.8386 33.6901L20.4326 28.485C19.0295 23.2906 23.7886 18.5314 28.983 19.9346L34.1881 21.3406C38.1056 22.3988 42.2443 20.6845 44.2661 17.1661L46.9525 12.4914Z" fill="#FF9A70" stroke="#BE4716" stroke-width="1.96262"/>
<path d="M61.2264 36.4203C54.4186 35.4214 52.3879 23.4374 62.0419 22.7716C71.6958 22.1058 68.0343 37.4192 61.2264 36.4203Z" stroke="black" stroke-width="0.981309"/>
<mask id="path-3-inside-1_8224_35681" fill="white">
<path fill-rule="evenodd" clip-rule="evenodd" d="M35.2883 42.8946L32.084 68.2377C32.8126 68.3309 33.3283 68.9966 33.2361 69.7255C33.144 70.4545 32.4788 70.9709 31.75 70.8798L31.1654 75.5033C30.9809 76.9625 32.0143 78.295 33.4735 78.4795L60.5553 81.9036C62.0145 82.088 63.3469 81.0547 63.5314 79.5955L64.1161 74.971C64.1153 74.9709 64.1145 74.9708 64.1136 74.9707C63.384 74.8785 62.8673 74.2122 62.9596 73.4826C63.0518 72.753 63.7181 72.2364 64.4477 72.3286C64.4485 72.3287 64.4493 72.3288 64.4502 72.3289L68.2917 41.9452C68.4762 40.486 67.4429 39.1536 65.9837 38.9691L43.2899 36.0998L35.2883 42.8946Z"/>
</mask>
<path fill-rule="evenodd" clip-rule="evenodd" d="M35.2883 42.8946L32.084 68.2377C32.8126 68.3309 33.3283 68.9966 33.2361 69.7255C33.144 70.4545 32.4788 70.9709 31.75 70.8798L31.1654 75.5033C30.9809 76.9625 32.0143 78.295 33.4735 78.4795L60.5553 81.9036C62.0145 82.088 63.3469 81.0547 63.5314 79.5955L64.1161 74.971C64.1153 74.9709 64.1145 74.9708 64.1136 74.9707C63.384 74.8785 62.8673 74.2122 62.9596 73.4826C63.0518 72.753 63.7181 72.2364 64.4477 72.3286C64.4485 72.3287 64.4493 72.3288 64.4502 72.3289L68.2917 41.9452C68.4762 40.486 67.4429 39.1536 65.9837 38.9691L43.2899 36.0998L35.2883 42.8946Z" fill="#FF80B9"/>
<path d="M32.084 68.2377L31.4235 68.1542L31.3401 68.8138L31.9996 68.8981L32.084 68.2377ZM35.2883 42.8946L34.8573 42.3871L34.6602 42.5545L34.6278 42.8111L35.2883 42.8946ZM31.75 70.8798L31.8326 70.2192L31.1729 70.1367L31.0895 70.7963L31.75 70.8798ZM64.1161 74.971L64.7767 75.0546L64.8602 74.394L64.1996 74.3105L64.1161 74.971ZM64.4502 72.3289L64.3667 72.9895L65.0272 73.073L65.1107 72.4124L64.4502 72.3289ZM68.2917 41.9452L67.6312 41.8617L68.2917 41.9452ZM65.9837 38.9691L66.0672 38.3085L65.9837 38.9691ZM43.2899 36.0998L43.3734 35.4393L43.0825 35.4025L42.8589 35.5923L43.2899 36.0998ZM32.7446 68.3212L35.9488 42.9781L34.6278 42.8111L31.4235 68.1542L32.7446 68.3212ZM33.8967 69.8091C34.0349 68.7156 33.2614 67.7171 32.1685 67.5773L31.9996 68.8981C32.3639 68.9447 32.6217 69.2776 32.5756 69.642L33.8967 69.8091ZM31.6674 71.5405C32.7607 71.6771 33.7584 70.9025 33.8967 69.8091L32.5756 69.642C32.5295 70.0065 32.197 70.2647 31.8326 70.2192L31.6674 71.5405ZM31.826 75.5868L32.4105 70.9633L31.0895 70.7963L30.5049 75.4198L31.826 75.5868ZM33.557 77.819C32.4626 77.6806 31.6876 76.6812 31.826 75.5868L30.5049 75.4198C30.2743 77.2438 31.566 78.9094 33.39 79.14L33.557 77.819ZM60.6388 81.243L33.557 77.819L33.39 79.14L60.4717 82.5641L60.6388 81.243ZM62.8709 79.512C62.7325 80.6064 61.7332 81.3814 60.6388 81.243L60.4717 82.5641C62.2958 82.7947 63.9614 81.503 64.192 79.679L62.8709 79.512ZM63.4556 74.8875L62.8709 79.512L64.192 79.679L64.7767 75.0546L63.4556 74.8875ZM64.1996 74.3105C64.1983 74.3103 64.1972 74.3102 64.1969 74.3102C64.1963 74.3101 64.1967 74.3101 64.1971 74.3102L64.0301 75.6313C64.0314 75.6314 64.0326 75.6316 64.0329 75.6316C64.0334 75.6317 64.0331 75.6316 64.0326 75.6316L64.1996 74.3105ZM64.1971 74.3102C63.8323 74.2641 63.574 73.931 63.6201 73.5662L62.2991 73.3991C62.1607 74.4935 62.9357 75.4929 64.0301 75.6313L64.1971 74.3102ZM63.6201 73.5662C63.6662 73.2014 63.9994 72.943 64.3642 72.9891L64.5312 71.6681C63.4368 71.5297 62.4374 72.3047 62.2991 73.3991L63.6201 73.5662ZM64.3642 72.9891C64.3637 72.9891 64.3634 72.989 64.3639 72.9891C64.3642 72.9891 64.3654 72.9893 64.3667 72.9895L64.5337 71.6684C64.5342 71.6685 64.5345 71.6685 64.5339 71.6684C64.5336 71.6684 64.5325 71.6682 64.5312 71.6681L64.3642 72.9891ZM67.6312 41.8617L63.7897 72.2454L65.1107 72.4124L68.9523 42.0288L67.6312 41.8617ZM65.9001 39.6296C66.9945 39.768 67.7696 40.7673 67.6312 41.8617L68.9523 42.0288C69.1829 40.2047 67.8912 38.5391 66.0672 38.3085L65.9001 39.6296ZM43.2064 36.7603L65.9001 39.6296L66.0672 38.3085L43.3734 35.4393L43.2064 36.7603ZM35.7192 43.4021L43.7209 36.6073L42.8589 35.5923L34.8573 42.3871L35.7192 43.4021Z" fill="black" mask="url(#path-3-inside-1_8224_35681)"/>
<path d="M34.7832 70.7285L62.0104 72.6845" stroke="black" stroke-width="0.332895"/>
<mask id="path-6-inside-2_8224_35681" fill="white">
<path fill-rule="evenodd" clip-rule="evenodd" d="M50.4413 31.3511L69.0115 33.4685L74.5843 45.045L72.0167 67.5636L72.0156 67.5635C71.285 67.4802 70.6246 68.0093 70.5407 68.7454C70.4567 69.4815 70.981 70.1457 71.7117 70.229L71.7127 70.2292L71.1786 74.9135C71.012 76.3748 69.6922 77.4244 68.2309 77.2578L41.1092 74.1653C39.6479 73.9986 38.5983 72.6789 38.7649 71.2175L39.2991 66.5329C40.0294 66.6156 40.6891 66.0866 40.773 65.3509C40.8569 64.6152 40.3332 63.9512 39.603 63.8674L42.5185 38.2987L50.4413 31.3511ZM60.5532 38.3192C61.5691 38.3974 62.4573 37.6204 62.537 36.5837C62.6168 35.5471 61.8579 34.6434 60.842 34.5652C59.8262 34.4871 58.938 35.2641 58.8582 36.3007C58.7785 37.3373 59.5373 38.2411 60.5532 38.3192Z"/>
</mask>
<path fill-rule="evenodd" clip-rule="evenodd" d="M50.4413 31.3511L69.0115 33.4685L74.5843 45.045L72.0167 67.5636L72.0156 67.5635C71.285 67.4802 70.6246 68.0093 70.5407 68.7454C70.4567 69.4815 70.981 70.1457 71.7117 70.229L71.7127 70.2292L71.1786 74.9135C71.012 76.3748 69.6922 77.4244 68.2309 77.2578L41.1092 74.1653C39.6479 73.9986 38.5983 72.6789 38.7649 71.2175L39.2991 66.5329C40.0294 66.6156 40.6891 66.0866 40.773 65.3509C40.8569 64.6152 40.3332 63.9512 39.603 63.8674L42.5185 38.2987L50.4413 31.3511ZM60.5532 38.3192C61.5691 38.3974 62.4573 37.6204 62.537 36.5837C62.6168 35.5471 61.8579 34.6434 60.842 34.5652C59.8262 34.4871 58.938 35.2641 58.8582 36.3007C58.7785 37.3373 59.5373 38.2411 60.5532 38.3192Z" fill="#9C6EB9"/>
<path d="M69.0115 33.4685L69.6114 33.1797L69.452 32.8487L69.087 32.807L69.0115 33.4685ZM50.4413 31.3511L50.5168 30.6896L50.2239 30.6562L50.0024 30.8505L50.4413 31.3511ZM74.5843 45.045L75.2458 45.1204L75.2676 44.9294L75.1842 44.7562L74.5843 45.045ZM72.0167 67.5636L71.941 68.2251L72.6027 68.3008L72.6782 67.639L72.0167 67.5636ZM72.0156 67.5635L72.0913 66.902L72.0911 66.902L72.0156 67.5635ZM70.5407 68.7454L69.8792 68.67L70.5407 68.7454ZM71.7117 70.229L71.7876 69.5676L71.7871 69.5675L71.7117 70.229ZM71.7127 70.2292L72.3742 70.3046L72.4496 69.6436L71.7887 69.5677L71.7127 70.2292ZM71.1786 74.9135L70.5171 74.8381V74.8381L71.1786 74.9135ZM68.2309 77.2578L68.3063 76.5963L68.2309 77.2578ZM41.1092 74.1653L41.0338 74.8268L41.1092 74.1653ZM38.7649 71.2175L38.1034 71.1421L38.7649 71.2175ZM39.2991 66.5329L39.374 65.8714L38.713 65.7965L38.6376 66.4575L39.2991 66.5329ZM40.773 65.3509L40.1115 65.2755H40.1115L40.773 65.3509ZM39.603 63.8674L38.9415 63.792L38.8662 64.4529L39.5271 64.5288L39.603 63.8674ZM42.5185 38.2987L42.0795 37.7982L41.8861 37.9677L41.857 38.2233L42.5185 38.2987ZM62.537 36.5837L63.2009 36.6348V36.6348L62.537 36.5837ZM58.8582 36.3007L58.1944 36.2496V36.2496L58.8582 36.3007ZM69.087 32.807L50.5168 30.6896L50.3659 32.0126L68.9361 34.13L69.087 32.807ZM75.1842 44.7562L69.6114 33.1797L68.4116 33.7573L73.9844 45.3338L75.1842 44.7562ZM72.6782 67.639L75.2458 45.1204L73.9228 44.9695L71.3552 67.4882L72.6782 67.639ZM71.94 68.225L71.941 68.2251L72.0923 66.9021L72.0913 66.902L71.94 68.225ZM71.2022 68.8208C71.245 68.4455 71.5794 68.1839 71.9402 68.225L72.0911 66.902C70.9905 66.7765 70.0042 67.5732 69.8792 68.67L71.2022 68.8208ZM71.7871 69.5675C71.4264 69.5264 71.1594 69.1962 71.2022 68.8208L69.8792 68.67C69.7541 69.7668 70.5357 70.7651 71.6363 70.8905L71.7871 69.5675ZM71.7887 69.5677L71.7876 69.5676L71.6357 70.8905L71.6368 70.8906L71.7887 69.5677ZM71.8401 74.9889L72.3742 70.3046L71.0512 70.1537L70.5171 74.8381L71.8401 74.9889ZM68.1554 77.9193C69.9821 78.1276 71.6318 76.8156 71.8401 74.9889L70.5171 74.8381C70.3921 75.9341 69.4023 76.7212 68.3063 76.5963L68.1554 77.9193ZM41.0338 74.8268L68.1554 77.9193L68.3063 76.5963L41.1847 73.5037L41.0338 74.8268ZM38.1034 71.1421C37.8952 72.9688 39.2071 74.6185 41.0338 74.8268L41.1847 73.5037C40.0887 73.3788 39.3015 72.389 39.4265 71.293L38.1034 71.1421ZM38.6376 66.4575L38.1034 71.1421L39.4265 71.293L39.9606 66.6084L38.6376 66.4575ZM40.1115 65.2755C40.0687 65.6506 39.7345 65.9122 39.374 65.8714L39.2242 67.1945C40.3242 67.319 41.3095 66.5226 41.4345 65.4263L40.1115 65.2755ZM39.5271 64.5288C39.8876 64.5702 40.1543 64.9003 40.1115 65.2755L41.4345 65.4263C41.5595 64.3301 40.7788 63.3322 39.679 63.206L39.5271 64.5288ZM41.857 38.2233L38.9415 63.792L40.2645 63.9428L43.18 38.3742L41.857 38.2233ZM50.0024 30.8505L42.0795 37.7982L42.9575 38.7993L50.8803 31.8517L50.0024 30.8505ZM61.8732 36.5327C61.8207 37.2154 61.241 37.7044 60.6043 37.6554L60.5022 38.983C61.8972 39.0904 63.0939 38.0253 63.2009 36.6348L61.8732 36.5327ZM60.791 35.229C61.4276 35.278 61.9257 35.8499 61.8732 36.5327L63.2009 36.6348C63.3078 35.2443 62.2882 34.0087 60.8931 33.9014L60.791 35.229ZM59.5221 36.3518C59.5746 35.669 60.1543 35.1801 60.791 35.229L60.8931 33.9014C59.498 33.7941 58.3014 34.8591 58.1944 36.2496L59.5221 36.3518ZM60.6043 37.6554C59.9676 37.6064 59.4695 37.0345 59.5221 36.3518L58.1944 36.2496C58.0874 37.6402 59.1071 38.8757 60.5022 38.983L60.6043 37.6554Z" fill="black" mask="url(#path-6-inside-2_8224_35681)"/>
<path d="M42.0698 65.0479L69.1819 68.2229" stroke="black" stroke-width="0.332895"/>
<path d="M62.374 36.4194C64.0385 36.0865 65.8361 34.7549 66.3688 33.4233" stroke="black" stroke-width="0.981309"/>
<path d="M51.4435 62.6061L62.8951 42.7922H65.2121L53.7605 62.6061H51.4435ZM51.9762 53.0187C49.1266 53.0187 47.289 50.9415 47.289 48.2251C47.289 45.5086 49.1266 43.4314 51.9762 43.4314C54.9323 43.4314 56.6367 45.5086 56.6367 48.2251C56.6367 50.8616 54.8524 53.0187 51.9762 53.0187ZM51.9495 50.8882C53.3078 50.8882 54.16 49.7164 54.16 48.2251C54.16 46.6005 53.3078 45.5353 51.9495 45.5353C50.618 45.5353 49.7658 46.6005 49.7658 48.2251C49.7658 49.7164 50.618 50.8882 51.9495 50.8882ZM64.7061 61.967C61.8565 61.967 60.0189 59.8897 60.0189 57.1733C60.0189 54.4569 61.8565 52.3796 64.7061 52.3796C67.6622 52.3796 69.3666 54.4569 69.3666 57.1733C69.3666 59.8098 67.5823 61.967 64.7061 61.967ZM64.6794 59.8364C66.0376 59.8364 66.8899 58.6646 66.8899 57.1733C66.8899 55.5487 66.0376 54.4835 64.6794 54.4835C63.3479 54.4835 62.4956 55.5487 62.4956 57.1733C62.4956 58.6646 63.3479 59.8364 64.6794 59.8364Z" fill="white"/>
</svg>
