<svg width="27" height="27" viewBox="0 0 27 27" fill="none" xmlns="http://www.w3.org/2000/svg">
<path d="M13.5 7.245V10.9912" stroke="#292D32" stroke-width="1.6875" stroke-miterlimit="10" stroke-linecap="round"/>
<path d="M13.5223 2.25C9.38226 2.25 6.02976 5.6025 6.02976 9.7425V12.105C6.02976 12.87 5.71476 14.0175 5.32101 14.67L3.89226 17.055C3.01476 18.5287 3.62226 20.1712 5.24226 20.7112C10.6198 22.5 16.436 22.5 21.8135 20.7112C23.3323 20.205 23.9848 18.4275 23.1635 17.055L21.7348 14.67C21.341 14.0175 21.026 12.8588 21.026 12.105V9.7425C21.0148 5.625 17.6398 2.25 13.5223 2.25Z" stroke="#292D32" stroke-width="1.6875" stroke-miterlimit="10" stroke-linecap="round"/>
<path d="M17.2464 21.1725C17.2464 23.2312 15.5589 24.9187 13.5002 24.9187C12.4764 24.9187 11.5314 24.4912 10.8564 23.8162C10.1814 23.1412 9.75391 22.1962 9.75391 21.1725" stroke="#292D32" stroke-width="1.6875" stroke-miterlimit="10"/>
</svg>
