<svg width="547" height="374" viewBox="0 0 547 374" fill="none" xmlns="http://www.w3.org/2000/svg">
<g clip-path="url(#clip0_8309_1501)">
<g style="mix-blend-mode:soft-light">
<path fill-rule="evenodd" clip-rule="evenodd" d="M-166.303 304.786C-121.884 317.405 -76.6104 311.974 -38.3123 292.859C-39.5454 371.427 11.7895 444.134 90.9654 466.628C132.027 478.293 173.82 474.534 210.157 458.798C208.563 537.671 259.977 610.795 339.421 633.364C433.911 660.209 532.272 605.371 559.117 510.881C585.961 416.391 531.124 318.03 436.633 291.185C395.572 279.52 353.779 283.279 317.442 299.015C319.036 220.142 267.622 147.018 188.178 124.448C143.76 111.829 98.4857 117.26 60.1877 136.375C61.4207 57.8073 10.0858 -14.8999 -69.0901 -37.3936C-163.58 -64.2382 -261.941 -9.40057 -288.786 85.0896C-315.631 179.58 -260.793 277.941 -166.303 304.786Z" fill="white" fill-opacity="0.03"/>
</g>
</g>
<defs>
<clipPath id="clip0_8309_1501">
<rect width="547" height="374" />
</clipPath>
</defs>
</svg>
