<svg width="140" height="108" viewBox="0 0 140 108" fill="none" xmlns="http://www.w3.org/2000/svg">
<rect width="140" height="108" rx="11" fill="#F3E1FF"/>
<path d="M35.2717 45.229H105.73V80.4582H35.2717V45.229Z" fill="#E2B8FF"/>
<path d="M35.2717 80.4585H105.73V87.8752H35.2717V80.4585Z" fill="#9863BC"/>
<path d="M76.0625 54.5H98.3125V87.875H76.0625V54.5Z" fill="#9863BC"/>
<path d="M42.6875 54.5H68.6458V74.8958H42.6875V54.5Z" fill="#E3F2FD"/>
<path d="M44.541 56.354H66.791V73.0415H44.541V56.354Z" fill="#BA7FE2"/>
<path d="M93.6771 72.1147C93.1208 72.1147 92.75 72.4856 92.75 73.0418V76.7502C92.75 77.3064 93.1208 77.6772 93.6771 77.6772C94.2333 77.6772 94.6042 77.3064 94.6042 76.7502V73.0418C94.6042 72.4856 94.2333 72.1147 93.6771 72.1147Z" fill="#90A4AE"/>
<path d="M70.5 50.7915C73.5721 50.7915 76.0625 48.3011 76.0625 45.229C76.0625 42.1569 73.5721 39.6665 70.5 39.6665C67.4279 39.6665 64.9375 42.1569 64.9375 45.229C64.9375 48.3011 67.4279 50.7915 70.5 50.7915Z" fill="#558B2F"/>
<path d="M92.75 50.7915C95.8221 50.7915 98.3125 48.3011 98.3125 45.229C98.3125 42.1569 95.8221 39.6665 92.75 39.6665C89.6779 39.6665 87.1875 42.1569 87.1875 45.229C87.1875 48.3011 89.6779 50.7915 92.75 50.7915Z" fill="#558B2F"/>
<path d="M48.25 50.7915C51.3221 50.7915 53.8125 48.3011 53.8125 45.229C53.8125 42.1569 51.3221 39.6665 48.25 39.6665C45.1779 39.6665 42.6875 42.1569 42.6875 45.229C42.6875 48.3011 45.1779 50.7915 48.25 50.7915Z" fill="#558B2F"/>
<path d="M100.167 21.125H40.8333C38.7937 21.125 37.125 22.7937 37.125 24.8333V30.3958H103.875V24.8333C103.875 22.7937 102.206 21.125 100.167 21.125ZM64.9375 30.3958H76.0625V45.2292H64.9375V30.3958ZM94.6042 30.3958H85.3333L87.1875 45.2292H98.3125L94.6042 30.3958ZM46.3958 30.3958H55.6667L53.8125 45.2292H42.6875L46.3958 30.3958Z" fill="#FF9A70"/>
<path d="M81.625 50.7915C84.6971 50.7915 87.1875 48.3011 87.1875 45.229C87.1875 42.1569 84.6971 39.6665 81.625 39.6665C78.5529 39.6665 76.0625 42.1569 76.0625 45.229C76.0625 48.3011 78.5529 50.7915 81.625 50.7915Z" fill="#FF9A70"/>
<path d="M109.438 45.229C109.438 48.3811 107.027 50.7915 103.875 50.7915C100.723 50.7915 98.3125 48.3811 98.3125 45.229C98.3125 42.0769 100.723 39.6665 103.875 39.6665L109.438 45.229Z" fill="#FF9A70"/>
<path d="M59.375 50.7915C62.4471 50.7915 64.9375 48.3011 64.9375 45.229C64.9375 42.1569 62.4471 39.6665 59.375 39.6665C56.3029 39.6665 53.8125 42.1569 53.8125 45.229C53.8125 48.3011 56.3029 50.7915 59.375 50.7915Z" fill="#FF9A70"/>
<path d="M31.5625 45.229C31.5625 48.3811 33.9729 50.7915 37.125 50.7915C40.2771 50.7915 42.6875 48.3811 42.6875 45.229C42.6875 42.0769 40.2771 39.6665 37.125 39.6665L31.5625 45.229Z" fill="#FF9A70"/>
<path d="M85.3333 30.396H76.0625V45.2293H87.1875L85.3333 30.396ZM103.875 30.396H94.6042L98.3125 45.2293H109.438L103.875 30.396ZM55.6667 30.396H64.9375V45.2293H53.8125L55.6667 30.396ZM37.125 30.396H46.3958L42.6875 45.2293H31.5625L37.125 30.396Z" fill="#FED4C3"/>
</svg>
